<svg height="512.00001pt" viewBox="0 0 512.00001 512.00001" width="512.00001pt" xmlns="http://www.w3.org/2000/svg"><path d="m421.152344 285.433594 90.847656 226.566406-226.816406-90.960938.714844-10.925781c.050781-.792969.078124-1.515625.078124-2.210937 0-16.527344-13.449218-29.976563-29.976562-29.976563-16.539062 0-29.988281 13.449219-29.988281 29.976563 0 .695312.03125 1.417968.082031 2.210937l.714844 10.925781-226.808594 90.960938 90.457031-225.597656 10.773438.5625c.324219.019531.65625.019531.976562.019531 16.539063 0 29.988281-13.449219 29.988281-29.976563 0-16.53125-13.449218-29.980468-29.988281-29.980468h-.484375l-10.550781.34375-91.171875-227.371094 227.160156 91.089844-1.027344 11.199218c-.082031.851563-.121093 1.730469-.121093 2.613282 0 16.539062 13.449219 29.988281 29.988281 29.988281 16.527344 0 29.976562-13.449219 29.976562-29.988281 0-.875-.039062-1.75-.121093-2.605469l-1.023438-11.195313 227.167969-91.101562-91.5625 228.335938-11.316406-1.167969c-.917969-.089844-1.882813-.140625-2.898438-.140625-16.527344 0-29.980468 13.449218-29.980468 29.980468 0 16.527344 13.453124 29.976563 29.980468 29.976563 1.175782 0 2.34375-.070313 3.460938-.203125zm0 0" fill="#ff4f19"/><path d="m421.152344 285.433594 90.847656 226.566406-226.816406-90.960938.714844-10.925781c.050781-.792969.078124-1.515625.078124-2.210937 0-16.527344-13.449218-29.976563-29.976562-29.976563v-243.035156c16.527344 0 29.976562-13.449219 29.976562-29.988281 0-.875-.039062-1.75-.121093-2.605469l-1.023438-11.195313 227.167969-91.101562-91.5625 228.335938-11.316406-1.167969c-.917969-.089844-1.882813-.140625-2.898438-.140625-16.527344 0-29.980468 13.449218-29.980468 29.980468 0 16.527344 13.453124 29.976563 29.980468 29.976563 1.175782 0 2.34375-.070313 3.460938-.203125zm0 0" fill="#d43200"/><path d="m301.773438 240.40625v30.179688h-30.179688v30.179687h-30.179688v-30.179687h-30.179687v-30.179688h30.179687v-30.179688h30.179688v30.179688zm0 0" fill="#ffdb2d"/><path d="m301.773438 240.40625v30.179688h-30.179688v30.179687h-15.59375v-90.539063h15.59375v30.179688zm0 0" fill="#ffb62d"/></svg>